<svg xmlns="http://www.w3.org/2000/svg" width="400" height="250" viewBox="0 0 400 250">
  <rect width="400" height="250" fill="#eceef1"/>
  <g fill="#b8bec9">
    <path d="M120 150a12 12 0 1 1-24 0 12 12 0 0 1 24 0zm184 0a12 12 0 1 1-24 0 12 12 0 0 1 24 0z"/>
    <path d="M300 120l-14-34a20 20 0 0 0-18.6-12H132.6a20 20 0 0 0-18.6 12l-14 34a16 16 0 0 0-10 14.8V168a8 8 0 0 0 8 8h12a20 20 0 0 0 40 0h100a20 20 0 0 0 40 0h12a8 8 0 0 0 8-8v-33.2a16 16 0 0 0-10-14.8zM132.6 90h134.8l11.5 28H121.1z"/>
  </g>
  <text x="200" y="215" font-family="Segoe UI, sans-serif" font-size="16" fill="#9aa1ad" text-anchor="middle">Görsel yok</text>
</svg>
